<?xml version="1.0" encoding="UTF-8" standalone="no"?>
<!-- Created with Inkscape (http://www.inkscape.org/) -->

<svg
   xmlns:dc="http://purl.org/dc/elements/1.1/"
   xmlns:cc="http://creativecommons.org/ns#"
   xmlns:rdf="http://www.w3.org/1999/02/22-rdf-syntax-ns#"
   xmlns:svg="http://www.w3.org/2000/svg"
   xmlns="http://www.w3.org/2000/svg"
   xmlns:sodipodi="http://sodipodi.sourceforge.net/DTD/sodipodi-0.dtd"
   xmlns:inkscape="http://www.inkscape.org/namespaces/inkscape"
   width="210mm"
   height="297mm"
   viewBox="0 0 210 297"
   version="1.1"
   id="svg8"
   sodipodi:docname="mylogo-final.svg"
   inkscape:version="0.92.4 (5da689c313, 2019-01-14)">
  <defs
     id="defs2" />
  <sodipodi:namedview
     id="base"
     pagecolor="#ffffff"
     bordercolor="#666666"
     borderopacity="1.0"
     inkscape:pageopacity="0.0"
     inkscape:pageshadow="2"
     inkscape:zoom="1.28"
     inkscape:cx="494.06553"
     inkscape:cy="849.01664"
     inkscape:document-units="mm"
     inkscape:current-layer="layer1"
     showgrid="true"
     showborder="false"
     inkscape:snap-object-midpoints="true"
     inkscape:snap-global="false"
     inkscape:snap-center="true"
     inkscape:object-paths="true"
     inkscape:snap-intersection-paths="true"
     inkscape:snap-smooth-nodes="true"
     inkscape:snap-midpoints="true"
     inkscape:window-width="2400"
     inkscape:window-height="1271"
     inkscape:window-x="2391"
     inkscape:window-y="-9"
     inkscape:window-maximized="1">
    <inkscape:grid
       type="xygrid"
       id="grid4533" />
    <sodipodi:guide
       position="131.15479,150.95"
       orientation="0,1"
       id="guide4535"
       inkscape:locked="false"
       inkscape:label=""
       inkscape:color="rgb(0,0,255)" />
    <sodipodi:guide
       position="175.33,188.92904"
       orientation="1,0"
       id="guide4537"
       inkscape:locked="false"
       inkscape:label=""
       inkscape:color="rgb(0,0,255)" />
    <sodipodi:guide
       position="166.19141,266.34033"
       orientation="0,-793.70079"
       id="guide4539"
       inkscape:locked="false" />
    <sodipodi:guide
       position="33.89974,188.30892"
       orientation="1122.5197,0"
       id="guide4541"
       inkscape:locked="false" />
  </sodipodi:namedview>
  <metadata
     id="metadata5">
    <rdf:RDF>
      <cc:Work
         rdf:about="">
        <dc:format>image/svg+xml</dc:format>
        <dc:type
           rdf:resource="http://purl.org/dc/dcmitype/StillImage" />
        <dc:title />
      </cc:Work>
    </rdf:RDF>
  </metadata>
  <g
     inkscape:label="Layer 1"
     inkscape:groupmode="layer"
     id="layer1">
    <g
       id="g4833"
       transform="translate(-0.41341146,-28.318685)">
      <rect
         inkscape:export-ydpi="600"
         inkscape:export-xdpi="600"
         transform="rotate(-45)"
         rx="3.4410915"
         ry="3.441092"
         y="147.10712"
         x="-42.801132"
         height="8.0180798"
         width="10.690777"
         id="rect4537"
         style="opacity:1;fill:#000000;fill-opacity:1;stroke:none;stroke-width:0.05;stroke-linecap:butt;stroke-linejoin:round;stroke-miterlimit:4;stroke-dasharray:none;stroke-dashoffset:1047.79833984;stroke-opacity:1;paint-order:stroke fill markers" />
      <rect
         inkscape:export-ydpi="600"
         inkscape:export-xdpi="600"
         transform="rotate(-45)"
         style="opacity:1;fill:#000000;fill-opacity:1;stroke:none;stroke-width:0.05;stroke-linecap:butt;stroke-linejoin:round;stroke-miterlimit:4;stroke-dasharray:none;stroke-dashoffset:1047.79833984;stroke-opacity:1;paint-order:stroke fill markers"
         id="rect4556"
         width="10.690777"
         height="8.0180798"
         x="-42.801132"
         y="156.92928"
         ry="3.441092"
         rx="3.4410915" />
      <rect
         inkscape:export-ydpi="600"
         inkscape:export-xdpi="600"
         transform="rotate(-45)"
         rx="3.4410915"
         ry="3.441092"
         y="166.75143"
         x="-42.801132"
         height="8.0180798"
         width="10.690777"
         id="rect4558"
         style="opacity:1;fill:#000000;fill-opacity:1;stroke:none;stroke-width:0.05;stroke-linecap:butt;stroke-linejoin:round;stroke-miterlimit:4;stroke-dasharray:none;stroke-dashoffset:1047.79833984;stroke-opacity:1;paint-order:stroke fill markers" />
      <rect
         inkscape:export-ydpi="600"
         inkscape:export-xdpi="600"
         transform="rotate(-45)"
         style="opacity:1;fill:#000000;fill-opacity:1;stroke:none;stroke-width:0.05;stroke-linecap:butt;stroke-linejoin:round;stroke-miterlimit:4;stroke-dasharray:none;stroke-dashoffset:1047.79833984;stroke-opacity:1;paint-order:stroke fill markers"
         id="rect4560"
         width="10.690777"
         height="8.0180798"
         x="-42.801132"
         y="176.43996"
         ry="3.441092"
         rx="3.4410915" />
      <path
         inkscape:export-ydpi="600"
         inkscape:export-xdpi="600"
         inkscape:connector-curvature="0"
         id="path4568"
         d="m 85.238679,106.02294 a 4.9217675,4.7800267 45 0 0 0.100122,6.86017 4.9217675,4.7800267 45 0 0 6.860162,0.10012 l -0.01169,-0.0117 12.225067,-12.22508 0.64897,0.001 a 1.1826183,1.1826183 0 0 1 1.05603,0.2514 c 6.86964,5.75894 13.1679,5.70655 17.92762,4.31035 4.75973,-1.3962 7.8252,-4.19305 7.8252,-4.19305 a 1.1827731,1.1827731 0 1 1 1.59757,1.74445 c 0,0 -3.43789,3.15895 -8.757,4.71924 -3.50628,1.02853 -7.8986,1.3359 -12.61496,-0.35846 l 20.66343,20.66343 12.22983,-12.22982 a 24.521203,24.521203 0 0 0 3.6e-4,-34.678279 24.521203,24.521203 0 0 0 -34.67864,2e-6 L 98.258881,93.029055 85.251835,106.0361 Z"
         style="opacity:1;fill:#000000;fill-opacity:1;stroke:none;stroke-width:2.36499953;stroke-linecap:round;stroke-linejoin:round;stroke-miterlimit:4;stroke-dasharray:none;stroke-dashoffset:1047.79833984;stroke-opacity:1;paint-order:stroke fill markers" />
      <path
         inkscape:export-ydpi="600"
         inkscape:export-xdpi="600"
         inkscape:connector-curvature="0"
         id="path4640"
         d="m 35.121937,82.620418 -0.88246,1.169671 c 4.848761,3.660253 8.780689,3.667009 11.413139,2.626549 1.103436,-0.436124 1.979248,-1.044767 2.628014,-1.605601 l 3.854683,3.854684 7.404618,-7.404618 2.794636,2.794637 a 26.930805,24.804684 45 0 0 4.043967,33.50385 26.930805,24.804684 45 0 0 2.576486,2.24982 l 8.307541,8.30754 a 5.7121146,5.7121146 0 0 1 0.184168,-0.19732 5.7121146,5.7121146 0 0 1 8.078064,-3.7e-4 5.7121146,5.7121146 0 0 1 0.01023,0.011 5.7121146,5.7121146 0 0 1 0.01498,0.0143 5.7121146,5.7121146 0 0 1 0.185628,0.20755 5.7121146,5.7121146 0 0 1 0.182703,0.20463 5.7121146,5.7121146 0 0 1 0.25944,0.34348 l -0.0037,0.004 a 5.7121146,5.7121146 0 0 1 1.001581,3.6391 l -0.0066,0.007 0.0058,0.006 a 5.7121146,5.7121146 0 0 1 -0.196953,1.15505 5.7121146,5.7121146 0 0 1 1.79415,-0.20682 l -0.06724,-0.0672 6.358457,-6.35846 1.9637,1.9637 -2.478194,2.47819 11.371855,11.37185 2.47819,-2.47819 1.55919,1.55919 0.39903,-0.39902 -1.5592,-1.55919 2.4782,-2.4782 -11.371852,-11.37185 -2.478195,2.4782 -1.963699,-1.9637 6.652616,-6.65261 1.9637,1.9637 -2.4782,2.47819 13.70717,13.70717 2.4782,-2.4782 1.55919,1.5592 0.39902,-0.39903 -1.55919,-1.55919 2.47819,-2.47819 -13.70717,-13.70717 -2.47819,2.47819 -1.9637,-1.9637 6.4732,-6.47319 1.9637,1.9637 -2.47747,2.47746 10.41448,10.41448 5.47819,-5.47819 -10.41448,-10.41448 -2.60024,2.60024 -1.9637,-1.9637 2.65615,-2.65615 -3.53166,-3.53166 -3.32412,-3.32411 -11.789141,11.78914 a 6.9016538,6.1590327 45 0 1 -9.235677,-0.52509 6.9016538,6.1590327 45 0 1 -0.951157,-8.75334 L 103.71186,85.052571 a 26.930805,24.804684 45 0 0 -2.2542,-2.572103 26.930805,24.804684 45 0 0 -33.51847,-4.058582 l -2.780021,-2.780021 7.409003,-7.409003 -9.113265,-9.113265 -20.432859,20.432859 4.219727,4.219727 c -0.533525,0.448818 -1.237977,0.929224 -2.12923,1.281486 -2.192152,0.866434 -5.434858,1.005878 -9.990608,-2.433251 z m 47.916989,-0.303652 a 4.9540038,4.9540038 0 0 1 7.005958,-3.67e-4 4.9540038,4.9540038 0 0 1 0,7.006325 4.9540038,4.9540038 0 0 1 -7.006325,0 4.9540038,4.9540038 0 0 1 3.67e-4,-7.005958 z m 8.606076,51.906874 a 5.7121146,5.7121146 0 0 1 0.92631,0.74214 5.7121146,5.7121146 0 0 1 1.49342,5.42228 5.7121146,5.7121146 0 0 1 5.424111,1.49525 5.7121146,5.7121146 0 0 1 0.756397,0.94202 l 1.54019,-1.54019 -8.600965,-8.60096 z m 9.388058,10.55662 a 5.7121146,5.7121146 0 0 1 -0.0767,2.55932 5.7121146,5.7121146 0 0 1 5.47271,1.48392 5.7121146,5.7121146 0 0 1 0.0906,7.98123 l 0.38222,0.38222 a 3.5976361,3.786084 45 0 0 0.27332,0.31205 3.5976361,3.786084 45 0 0 5.22094,-0.133 3.5976361,3.786084 45 0 0 0.13338,-5.22131 3.5976361,3.786084 45 0 0 -0.27077,-0.23788 l -9.17611,-9.17612 z m 20.33273,-19.44772 1.55774,1.55774 0.40048,-0.40049 -1.55773,-1.55773 z"
         style="opacity:1;fill:#000000;fill-opacity:1;stroke:none;stroke-width:2.36500001;stroke-linecap:round;stroke-linejoin:round;stroke-miterlimit:4;stroke-dasharray:none;stroke-dashoffset:1047.79833984;stroke-opacity:1;paint-order:stroke fill markers" />
      <path
         inkscape:export-ydpi="600"
         inkscape:export-xdpi="600"
         inkscape:connector-curvature="0"
         id="rect4747"
         d="m 120.40513,129.32681 8.21035,8.21034 0.0146,-0.0146 a 3.6740462,3.8664964 45 0 0 0.17137,0.19038 3.6740462,3.8664964 45 0 0 5.33203,-0.13594 3.6740462,3.8664964 45 0 0 0.13593,-5.33202 3.6740462,3.8664964 45 0 0 -0.18782,-0.17394 l 0.0121,-0.0121 -8.21035,-8.21034 z"
         style="opacity:1;fill:#000000;fill-opacity:1;stroke:none;stroke-width:1.46499979;stroke-linecap:butt;stroke-linejoin:round;stroke-miterlimit:4;stroke-dasharray:none;stroke-dashoffset:1047.79833984;stroke-opacity:1;paint-order:stroke fill markers" />
      <path
         inkscape:export-ydpi="600"
         inkscape:export-xdpi="600"
         inkscape:connector-curvature="0"
         id="rect4753"
         d="m 116.78651,139.45408 10.6392,10.63921 0.0197,-0.0197 a 3.5976361,3.786084 45 0 0 4.94251,-0.37783 3.5976361,3.786084 45 0 0 0.38038,-4.94506 l 0.0128,-0.0128 -0.23349,-0.2335 a 3.5976361,3.786084 45 0 0 -0.0267,-0.0296 3.5976361,3.786084 45 0 0 -0.0413,-0.0384 l -10.33774,-10.33775 z"
         style="opacity:1;fill:#000000;fill-opacity:1;stroke:none;stroke-width:1.46499979;stroke-linecap:butt;stroke-linejoin:round;stroke-miterlimit:4;stroke-dasharray:none;stroke-dashoffset:1047.79833984;stroke-opacity:1;paint-order:stroke fill markers" />
      <path
         inkscape:export-ydpi="600"
         inkscape:export-xdpi="600"
         inkscape:connector-curvature="0"
         id="rect4755"
         d="m 107.4255,144.19634 9.30766,9.30766 a 3.5976361,3.786084 45 0 0 0.0606,0.0672 3.5976361,3.786084 45 0 0 5.22095,-0.13301 3.5976361,3.786084 45 0 0 0.13337,-5.22131 3.5976361,3.786084 45 0 0 -0.0665,-0.0614 l 0.007,-0.007 -9.30766,-9.30766 z"
         style="opacity:1;fill:#000000;fill-opacity:1;stroke:none;stroke-width:1.46499979;stroke-linecap:butt;stroke-linejoin:round;stroke-miterlimit:4;stroke-dasharray:none;stroke-dashoffset:1047.79833984;stroke-opacity:1;paint-order:stroke fill markers" />
    </g>
  </g>
</svg>
